<svg width="686" height="619" viewBox="0 0 686 619" fill="none" xmlns="http://www.w3.org/2000/svg">
<path d="M33.4824 0H653.833C671.268 0 685.417 13.0353 685.417 29.0984V267.41C685.417 294.071 661.964 315.698 633.006 315.698H588.491C568.474 315.698 551.381 328.989 548.009 347.156C547.283 351.107 546.686 355.177 546.195 359.562C545.021 370.533 542.802 400.594 541.991 411.506C541.458 418.84 540.796 427.845 533.604 436.417C531.214 439.248 524.748 446.699 512.627 449.216C511.454 449.472 497.199 452.244 484.928 444.95C478.91 441.371 474.664 436.141 469.819 422.89C465.146 410.071 463.844 400.181 461.433 380.914C458.531 357.773 457.186 346.9 449.675 334.671C446.196 329.008 441.288 322.854 432.88 320.436C431.194 319.945 425.006 318.254 418.604 320.436C412.522 322.52 409.364 327.042 407.699 329.677C391.075 356.003 389.24 376.627 389.24 376.627C385.954 413.276 385.932 443.475 385.89 459.872C385.719 512.603 384.844 509.418 385.89 518.207C386.743 525.54 388.429 544.199 391.758 581.535C392.462 589.518 393.657 605.581 382.518 614.979C380.917 616.335 377.674 618.99 374.131 618.537C365.318 617.417 362.181 598.247 361.541 594.354C357.721 571.016 366.449 557.588 371.613 534.584C372.936 528.667 373.342 513.095 374.131 481.932C375.817 415.851 372.488 428.749 374.131 395.129C375.945 358.048 380 342.28 366.577 331.8C356.91 324.25 343.445 323.582 337.192 323.267C310.859 321.95 292.997 336.539 290.202 338.918C284.077 344.088 281.794 348.276 273.407 363.101C249.293 405.804 250.723 402.049 249.058 405.785C240.287 425.741 239.007 448.489 236.468 494.004C235.337 514.078 235.358 527.959 223.045 537.396C216.515 542.39 205.375 547.03 195.346 544.513C176.673 539.814 169.631 512.25 170.165 494.004C170.698 475.975 178.508 470.824 176.033 450.612C175.67 447.722 172.896 426.429 163.442 424.994C156.358 423.932 152.282 435.06 141.612 434.962C132.5 434.883 129.491 426.685 122.299 427.137C112.099 427.766 105.867 445.028 104.672 448.489C98.3984 466.714 101.557 482.817 109.709 511.09C122.534 555.602 130.238 569.444 124.817 592.191C120.315 611.145 111.608 615.667 108.023 617.102C97.4808 621.329 83.3112 618.085 75.2874 611.42C66.6447 604.224 65.7484 593.469 70.2512 562.326C77.1866 514.314 83.93 507.963 83.6739 482.64C83.5672 472.731 80.537 458.968 74.4338 431.423C66.3459 394.873 62.0993 376.254 51.7708 359.562C39.543 339.822 30.9216 330.562 11.2036 322.717C10.35 322.383 8.74951 321.734 6.78625 320.004C2.34753 316.071 0.000183105 310.566 0.000183105 304.904V30.7499C0.000183105 13.7627 14.9381 0 33.3758 0H33.4824Z" fill="#2B1664" fill-opacity="0.6"/>
</svg>
