<svg width="686" height="619" viewBox="0 0 686 619" fill="none" xmlns="http://www.w3.org/2000/svg">
<path d="M33.4819 0H653.833C671.268 0 685.416 13.0353 685.416 29.0984V267.41C685.416 294.071 661.963 315.698 633.005 315.698H588.49C568.473 315.698 551.38 328.989 548.008 347.156C547.283 351.107 546.685 355.177 546.194 359.562C545.021 370.533 542.801 400.594 541.991 411.506C541.457 418.84 540.795 427.845 533.604 436.417C531.214 439.248 524.748 446.699 512.627 449.216C511.453 449.472 497.198 452.244 484.928 444.95C478.91 441.371 474.663 436.141 469.819 422.89C465.146 410.071 463.844 400.181 461.432 380.914C458.53 357.773 457.186 346.9 449.674 334.671C446.196 329.008 441.288 322.854 432.88 320.436C431.194 319.945 425.005 318.254 418.603 320.436C412.521 322.52 409.363 327.042 407.699 329.677C391.075 356.003 389.24 376.627 389.24 376.627C385.953 413.276 385.932 443.475 385.889 459.872C385.718 512.603 384.843 509.418 385.889 518.207C386.743 525.54 388.429 544.199 391.758 581.535C392.462 589.518 393.657 605.581 382.517 614.979C380.917 616.335 377.673 618.99 374.131 618.537C365.317 617.417 362.181 598.247 361.54 594.354C357.72 571.016 366.448 557.588 371.613 534.584C372.936 528.667 373.341 513.095 374.131 481.932C375.817 415.851 372.488 428.749 374.131 395.129C375.945 358.048 379.999 342.28 366.577 331.8C356.91 324.25 343.444 323.582 337.191 323.267C310.858 321.95 292.997 336.539 290.201 338.918C284.076 344.088 281.793 348.276 273.406 363.101C249.292 405.804 250.722 402.049 249.058 405.785C240.287 425.741 239.007 448.489 236.467 494.004C235.336 514.078 235.357 527.959 223.044 537.396C216.514 542.39 205.375 547.03 195.345 544.513C176.673 539.814 169.631 512.25 170.164 494.004C170.698 475.975 178.508 470.824 176.033 450.612C175.67 447.722 172.896 426.429 163.442 424.994C156.357 423.932 152.281 435.06 141.611 434.962C132.499 434.883 129.49 426.685 122.299 427.137C112.098 427.766 105.867 445.028 104.672 448.489C98.3979 466.714 101.556 482.817 109.708 511.09C122.533 555.602 130.237 569.444 124.817 592.191C120.314 611.145 111.607 615.667 108.022 617.102C97.4803 621.329 83.3107 618.085 75.2869 611.42C66.6442 604.224 65.7479 593.469 70.2507 562.326C77.1862 514.314 83.9295 507.963 83.6734 482.64C83.5667 472.731 80.5365 458.968 74.4333 431.423C66.3455 394.873 62.0988 376.254 51.7703 359.562C39.5425 339.822 30.9211 330.562 11.2031 322.717C10.3495 322.383 8.74902 321.734 6.78577 320.004C2.34705 316.071 -0.000305176 310.566 -0.000305176 304.904V30.7499C-0.000305176 13.7627 14.9376 0 33.3753 0H33.4819Z" fill="#2B1664"/>
</svg>
